<svg width="1100" height="520" viewBox="0 0 1100 520" fill="none" xmlns="http://www.w3.org/2000/svg">
  <rect width="1100" height="520" rx="28" fill="#0B1020"/>
  <rect x="34" y="34" width="1032" height="452" rx="22" fill="#111827" stroke="#334155" stroke-width="2"/>
  <text x="66" y="88" fill="#E5E7EB" font-family="Inter, Arial, sans-serif" font-size="34" font-weight="800">ContextX Intelligence</text>
  <text x="66" y="122" fill="#93C5FD" font-family="Inter, Arial, sans-serif" font-size="18">Santhakumar K • Alpha X Solutions</text>
  <text x="66" y="160" fill="#CBD5E1" font-family="Inter, Arial, sans-serif" font-size="18">Local-first token usage monitor + reversible context compression for AI tools</text>

  <rect x="66" y="202" width="515" height="218" rx="14" fill="#020617" stroke="#475569" stroke-width="1.5"/>
  <text x="92" y="242" fill="#F8FAFC" font-family="Menlo, Consolas, monospace" font-size="20" font-weight="700">ContextX usage</text>
  <text x="92" y="280" fill="#A7F3D0" font-family="Menlo, Consolas, monospace" font-size="18">Daily: used 1.1K tok | quota 200K | remaining 198.9K</text>
  <text x="92" y="315" fill="#BFDBFE" font-family="Menlo, Consolas, monospace" font-size="18">Saved: 84.6K tok | req 12 | CCR 12/512</text>
  <text x="92" y="350" fill="#FDE68A" font-family="Menlo, Consolas, monospace" font-size="18">Reset: 00:00 local | last claude-desktop saved 72.8%</text>
  <text x="92" y="386" fill="#94A3B8" font-family="Menlo, Consolas, monospace" font-size="16">memory-only • localhost-only • telemetry off</text>

  <rect x="630" y="202" width="365" height="218" rx="14" fill="#172554" stroke="#60A5FA" stroke-width="1.5"/>
  <circle cx="694" cy="266" r="38" fill="#22C55E"/>
  <text x="676" y="276" fill="#052E16" font-family="Inter, Arial, sans-serif" font-size="24" font-weight="800">MCP</text>
  <circle cx="814" cy="266" r="38" fill="#38BDF8"/>
  <text x="790" y="276" fill="#082F49" font-family="Inter, Arial, sans-serif" font-size="24" font-weight="800">CLI</text>
  <circle cx="934" cy="266" r="38" fill="#FBBF24"/>
  <text x="902" y="276" fill="#451A03" font-family="Inter, Arial, sans-serif" font-size="24" font-weight="800">Proxy</text>
  <path d="M704 334H926" stroke="#93C5FD" stroke-width="8" stroke-linecap="round"/>
  <path d="M704 334H860" stroke="#34D399" stroke-width="8" stroke-linecap="round"/>
  <text x="704" y="372" fill="#E0F2FE" font-family="Inter, Arial, sans-serif" font-size="18" font-weight="700">Usage visible. Tokens saved.</text>
  <text x="704" y="399" fill="#BFDBFE" font-family="Inter, Arial, sans-serif" font-size="15">Claude Desktop • Cursor • Claude Code • SDK apps</text>

  <rect x="66" y="448" width="140" height="28" rx="14" fill="#064E3B"/>
  <text x="87" y="468" fill="#D1FAE5" font-family="Inter, Arial, sans-serif" font-size="14" font-weight="700">No Docker</text>
  <rect x="222" y="448" width="150" height="28" rx="14" fill="#1E3A8A"/>
  <text x="245" y="468" fill="#DBEAFE" font-family="Inter, Arial, sans-serif" font-size="14" font-weight="700">One command</text>
  <rect x="388" y="448" width="170" height="28" rx="14" fill="#581C87"/>
  <text x="412" y="468" fill="#F3E8FF" font-family="Inter, Arial, sans-serif" font-size="14" font-weight="700">Private by default</text>
  <rect x="574" y="448" width="155" height="28" rx="14" fill="#7C2D12"/>
  <text x="598" y="468" fill="#FFEDD5" font-family="Inter, Arial, sans-serif" font-size="14" font-weight="700">Rust binary</text>
</svg>
