<svg width="1200" height="620" viewBox="0 0 1200 620" fill="none" xmlns="http://www.w3.org/2000/svg">
  <rect width="1200" height="620" rx="32" fill="#08111F"/>
  <rect x="54" y="48" width="1092" height="524" rx="28" fill="#111827" stroke="#334155" stroke-width="2"/>

  <text x="92" y="108" fill="#F8FAFC" font-family="Inter, Arial, sans-serif" font-size="38" font-weight="800">ContextX Intelligence</text>
  <text x="92" y="143" fill="#93C5FD" font-family="Inter, Arial, sans-serif" font-size="18" font-weight="600">Santhakumar K • Alpha X Solutions</text>
  <text x="92" y="180" fill="#CBD5E1" font-family="Inter, Arial, sans-serif" font-size="19">Local-first usage monitor and reversible context compression for AI tools.</text>

  <rect x="92" y="224" width="620" height="234" rx="18" fill="#020617" stroke="#475569" stroke-width="1.5"/>
  <rect x="114" y="248" width="142" height="30" rx="15" fill="#0F766E" fill-opacity="0.22"/>
  <text x="132" y="269" fill="#99F6E4" font-family="Inter, Arial, sans-serif" font-size="15" font-weight="700">Usage card</text>

  <text x="120" y="315" fill="#F8FAFC" font-family="Menlo, Consolas, monospace" font-size="21" font-weight="700">ContextX usage</text>
  <text x="120" y="353" fill="#A7F3D0" font-family="Menlo, Consolas, monospace" font-size="18">Daily: used 1.1K tok | remaining 198.9K</text>
  <text x="120" y="389" fill="#BFDBFE" font-family="Menlo, Consolas, monospace" font-size="18">Saved: 84.6K tok | req 12 | CCR 12/512</text>
  <text x="120" y="425" fill="#FDE68A" font-family="Menlo, Consolas, monospace" font-size="18">Reset: 00:00 local | last saved 72.8%</text>

  <rect x="748" y="224" width="358" height="234" rx="18" fill="#0B1730" stroke="#3B82F6" stroke-width="1.5"/>
  <text x="776" y="269" fill="#DBEAFE" font-family="Inter, Arial, sans-serif" font-size="18" font-weight="800">How it connects</text>
  <text x="776" y="300" fill="#CBD5E1" font-family="Inter, Arial, sans-serif" font-size="15">One local daemon powers every surface.</text>

  <rect x="778" y="330" width="92" height="42" rx="21" fill="#16A34A"/>
  <text x="805" y="357" fill="#052E16" font-family="Inter, Arial, sans-serif" font-size="18" font-weight="800">MCP</text>
  <path d="M870 351H904" stroke="#64748B" stroke-width="3" stroke-linecap="round"/>
  <rect x="904" y="330" width="82" height="42" rx="21" fill="#38BDF8"/>
  <text x="929" y="357" fill="#082F49" font-family="Inter, Arial, sans-serif" font-size="18" font-weight="800">CLI</text>
  <path d="M986 351H1020" stroke="#64748B" stroke-width="3" stroke-linecap="round"/>
  <rect x="1020" y="330" width="72" height="42" rx="21" fill="#FBBF24"/>
  <text x="1035" y="357" fill="#451A03" font-family="Inter, Arial, sans-serif" font-size="18" font-weight="800">API</text>

  <rect x="778" y="402" width="292" height="12" rx="6" fill="#1E293B"/>
  <rect x="778" y="402" width="214" height="12" rx="6" fill="#34D399"/>
  <text x="778" y="443" fill="#E0F2FE" font-family="Inter, Arial, sans-serif" font-size="17" font-weight="800">Usage visible. Context smaller.</text>

  <rect x="92" y="498" width="145" height="34" rx="17" fill="#064E3B"/>
  <text x="120" y="520" fill="#D1FAE5" font-family="Inter, Arial, sans-serif" font-size="14" font-weight="800">No Docker</text>
  <rect x="253" y="498" width="165" height="34" rx="17" fill="#1E3A8A"/>
  <text x="281" y="520" fill="#DBEAFE" font-family="Inter, Arial, sans-serif" font-size="14" font-weight="800">One command</text>
  <rect x="434" y="498" width="195" height="34" rx="17" fill="#581C87"/>
  <text x="462" y="520" fill="#F3E8FF" font-family="Inter, Arial, sans-serif" font-size="14" font-weight="800">Private by default</text>
  <rect x="645" y="498" width="165" height="34" rx="17" fill="#7C2D12"/>
  <text x="677" y="520" fill="#FFEDD5" font-family="Inter, Arial, sans-serif" font-size="14" font-weight="800">Rust binary</text>
  <rect x="826" y="498" width="232" height="34" rx="17" fill="#0F172A" stroke="#475569"/>
  <text x="858" y="520" fill="#CBD5E1" font-family="Inter, Arial, sans-serif" font-size="14" font-weight="800">Localhost only • RAM CCR</text>
</svg>
